<svg xmlns="http://www.w3.org/2000/svg" xmlns:xlink="http://www.w3.org/1999/xlink" width="168" height="205" viewBox="0 0 168 205">
  <defs>
    <style>
      .cls-1 {
        fill: none;
      }

      .cls-2 {
        opacity: 0.33;
        clip-path: url(#clip-path);
      }

      .cls-3 {
        fill: #f78077;
      }
    </style>
    <clipPath id="clip-path">
      <rect class="cls-1" width="101" height="204"/>
    </clipPath>
  </defs>
  <g id="bg_start_my_coding" transform="translate(-164 -2238)">
    <g id="Repeat_Grid_4" data-name="Repeat Grid 4" class="cls-2" transform="translate(164 2239)">
      <g transform="translate(3153 -1450)">
        <circle id="Ellipse_62" data-name="Ellipse 62" class="cls-3" cx="3.5" cy="3.5" r="3.5" transform="translate(-3153 1450)"/>
      </g>
      <g transform="translate(3166 -1450)">
        <circle id="Ellipse_62-2" data-name="Ellipse 62" class="cls-3" cx="3.5" cy="3.5" r="3.5" transform="translate(-3153 1450)"/>
      </g>
      <g transform="translate(3179 -1450)">
        <circle id="Ellipse_62-3" data-name="Ellipse 62" class="cls-3" cx="3.5" cy="3.5" r="3.5" transform="translate(-3153 1450)"/>
      </g>
      <g transform="translate(3192 -1450)">
        <circle id="Ellipse_62-4" data-name="Ellipse 62" class="cls-3" cx="3.5" cy="3.5" r="3.5" transform="translate(-3153 1450)"/>
      </g>
      <g transform="translate(3205 -1450)">
        <circle id="Ellipse_62-5" data-name="Ellipse 62" class="cls-3" cx="3.5" cy="3.5" r="3.5" transform="translate(-3153 1450)"/>
      </g>
      <g transform="translate(3218 -1450)">
        <circle id="Ellipse_62-6" data-name="Ellipse 62" class="cls-3" cx="3.5" cy="3.5" r="3.5" transform="translate(-3153 1450)"/>
      </g>
      <g transform="translate(3231 -1450)">
        <circle id="Ellipse_62-7" data-name="Ellipse 62" class="cls-3" cx="3.5" cy="3.5" r="3.5" transform="translate(-3153 1450)"/>
      </g>
      <g transform="translate(3244 -1450)">
        <circle id="Ellipse_62-8" data-name="Ellipse 62" class="cls-3" cx="3.5" cy="3.5" r="3.5" transform="translate(-3153 1450)"/>
      </g>
      <g transform="translate(3153 -1435)">
        <circle id="Ellipse_62-9" data-name="Ellipse 62" class="cls-3" cx="3.5" cy="3.5" r="3.5" transform="translate(-3153 1450)"/>
      </g>
      <g transform="translate(3166 -1435)">
        <circle id="Ellipse_62-10" data-name="Ellipse 62" class="cls-3" cx="3.5" cy="3.5" r="3.5" transform="translate(-3153 1450)"/>
      </g>
      <g transform="translate(3179 -1435)">
        <circle id="Ellipse_62-11" data-name="Ellipse 62" class="cls-3" cx="3.5" cy="3.5" r="3.5" transform="translate(-3153 1450)"/>
      </g>
      <g transform="translate(3192 -1435)">
        <circle id="Ellipse_62-12" data-name="Ellipse 62" class="cls-3" cx="3.5" cy="3.5" r="3.5" transform="translate(-3153 1450)"/>
      </g>
      <g transform="translate(3205 -1435)">
        <circle id="Ellipse_62-13" data-name="Ellipse 62" class="cls-3" cx="3.5" cy="3.5" r="3.5" transform="translate(-3153 1450)"/>
      </g>
      <g transform="translate(3218 -1435)">
        <circle id="Ellipse_62-14" data-name="Ellipse 62" class="cls-3" cx="3.5" cy="3.5" r="3.5" transform="translate(-3153 1450)"/>
      </g>
      <g transform="translate(3231 -1435)">
        <circle id="Ellipse_62-15" data-name="Ellipse 62" class="cls-3" cx="3.5" cy="3.5" r="3.5" transform="translate(-3153 1450)"/>
      </g>
      <g transform="translate(3244 -1435)">
        <circle id="Ellipse_62-16" data-name="Ellipse 62" class="cls-3" cx="3.5" cy="3.5" r="3.5" transform="translate(-3153 1450)"/>
      </g>
      <g transform="translate(3153 -1420)">
        <circle id="Ellipse_62-17" data-name="Ellipse 62" class="cls-3" cx="3.5" cy="3.5" r="3.5" transform="translate(-3153 1450)"/>
      </g>
      <g transform="translate(3166 -1420)">
        <circle id="Ellipse_62-18" data-name="Ellipse 62" class="cls-3" cx="3.5" cy="3.5" r="3.5" transform="translate(-3153 1450)"/>
      </g>
      <g transform="translate(3179 -1420)">
        <circle id="Ellipse_62-19" data-name="Ellipse 62" class="cls-3" cx="3.5" cy="3.5" r="3.5" transform="translate(-3153 1450)"/>
      </g>
      <g transform="translate(3192 -1420)">
        <circle id="Ellipse_62-20" data-name="Ellipse 62" class="cls-3" cx="3.5" cy="3.5" r="3.5" transform="translate(-3153 1450)"/>
      </g>
      <g transform="translate(3205 -1420)">
        <circle id="Ellipse_62-21" data-name="Ellipse 62" class="cls-3" cx="3.5" cy="3.5" r="3.5" transform="translate(-3153 1450)"/>
      </g>
      <g transform="translate(3218 -1420)">
        <circle id="Ellipse_62-22" data-name="Ellipse 62" class="cls-3" cx="3.5" cy="3.5" r="3.5" transform="translate(-3153 1450)"/>
      </g>
      <g transform="translate(3231 -1420)">
        <circle id="Ellipse_62-23" data-name="Ellipse 62" class="cls-3" cx="3.5" cy="3.5" r="3.5" transform="translate(-3153 1450)"/>
      </g>
      <g transform="translate(3244 -1420)">
        <circle id="Ellipse_62-24" data-name="Ellipse 62" class="cls-3" cx="3.5" cy="3.5" r="3.5" transform="translate(-3153 1450)"/>
      </g>
      <g transform="translate(3153 -1405)">
        <circle id="Ellipse_62-25" data-name="Ellipse 62" class="cls-3" cx="3.5" cy="3.5" r="3.5" transform="translate(-3153 1450)"/>
      </g>
      <g transform="translate(3166 -1405)">
        <circle id="Ellipse_62-26" data-name="Ellipse 62" class="cls-3" cx="3.5" cy="3.5" r="3.5" transform="translate(-3153 1450)"/>
      </g>
      <g transform="translate(3179 -1405)">
        <circle id="Ellipse_62-27" data-name="Ellipse 62" class="cls-3" cx="3.5" cy="3.5" r="3.5" transform="translate(-3153 1450)"/>
      </g>
      <g transform="translate(3192 -1405)">
        <circle id="Ellipse_62-28" data-name="Ellipse 62" class="cls-3" cx="3.5" cy="3.5" r="3.5" transform="translate(-3153 1450)"/>
      </g>
      <g transform="translate(3205 -1405)">
        <circle id="Ellipse_62-29" data-name="Ellipse 62" class="cls-3" cx="3.5" cy="3.5" r="3.5" transform="translate(-3153 1450)"/>
      </g>
      <g transform="translate(3218 -1405)">
        <circle id="Ellipse_62-30" data-name="Ellipse 62" class="cls-3" cx="3.5" cy="3.5" r="3.5" transform="translate(-3153 1450)"/>
      </g>
      <g transform="translate(3231 -1405)">
        <circle id="Ellipse_62-31" data-name="Ellipse 62" class="cls-3" cx="3.5" cy="3.5" r="3.5" transform="translate(-3153 1450)"/>
      </g>
      <g transform="translate(3244 -1405)">
        <circle id="Ellipse_62-32" data-name="Ellipse 62" class="cls-3" cx="3.5" cy="3.5" r="3.5" transform="translate(-3153 1450)"/>
      </g>
      <g transform="translate(3153 -1390)">
        <circle id="Ellipse_62-33" data-name="Ellipse 62" class="cls-3" cx="3.5" cy="3.5" r="3.5" transform="translate(-3153 1450)"/>
      </g>
      <g transform="translate(3166 -1390)">
        <circle id="Ellipse_62-34" data-name="Ellipse 62" class="cls-3" cx="3.5" cy="3.5" r="3.5" transform="translate(-3153 1450)"/>
      </g>
      <g transform="translate(3179 -1390)">
        <circle id="Ellipse_62-35" data-name="Ellipse 62" class="cls-3" cx="3.5" cy="3.5" r="3.5" transform="translate(-3153 1450)"/>
      </g>
      <g transform="translate(3192 -1390)">
        <circle id="Ellipse_62-36" data-name="Ellipse 62" class="cls-3" cx="3.5" cy="3.5" r="3.5" transform="translate(-3153 1450)"/>
      </g>
      <g transform="translate(3205 -1390)">
        <circle id="Ellipse_62-37" data-name="Ellipse 62" class="cls-3" cx="3.5" cy="3.5" r="3.5" transform="translate(-3153 1450)"/>
      </g>
      <g transform="translate(3218 -1390)">
        <circle id="Ellipse_62-38" data-name="Ellipse 62" class="cls-3" cx="3.5" cy="3.5" r="3.5" transform="translate(-3153 1450)"/>
      </g>
      <g transform="translate(3231 -1390)">
        <circle id="Ellipse_62-39" data-name="Ellipse 62" class="cls-3" cx="3.5" cy="3.5" r="3.5" transform="translate(-3153 1450)"/>
      </g>
      <g transform="translate(3244 -1390)">
        <circle id="Ellipse_62-40" data-name="Ellipse 62" class="cls-3" cx="3.5" cy="3.5" r="3.5" transform="translate(-3153 1450)"/>
      </g>
      <g transform="translate(3153 -1375)">
        <circle id="Ellipse_62-41" data-name="Ellipse 62" class="cls-3" cx="3.5" cy="3.5" r="3.5" transform="translate(-3153 1450)"/>
      </g>
      <g transform="translate(3166 -1375)">
        <circle id="Ellipse_62-42" data-name="Ellipse 62" class="cls-3" cx="3.5" cy="3.5" r="3.5" transform="translate(-3153 1450)"/>
      </g>
      <g transform="translate(3179 -1375)">
        <circle id="Ellipse_62-43" data-name="Ellipse 62" class="cls-3" cx="3.5" cy="3.5" r="3.5" transform="translate(-3153 1450)"/>
      </g>
      <g transform="translate(3192 -1375)">
        <circle id="Ellipse_62-44" data-name="Ellipse 62" class="cls-3" cx="3.5" cy="3.5" r="3.5" transform="translate(-3153 1450)"/>
      </g>
      <g transform="translate(3205 -1375)">
        <circle id="Ellipse_62-45" data-name="Ellipse 62" class="cls-3" cx="3.5" cy="3.5" r="3.5" transform="translate(-3153 1450)"/>
      </g>
      <g transform="translate(3218 -1375)">
        <circle id="Ellipse_62-46" data-name="Ellipse 62" class="cls-3" cx="3.5" cy="3.5" r="3.5" transform="translate(-3153 1450)"/>
      </g>
      <g transform="translate(3231 -1375)">
        <circle id="Ellipse_62-47" data-name="Ellipse 62" class="cls-3" cx="3.5" cy="3.5" r="3.5" transform="translate(-3153 1450)"/>
      </g>
      <g transform="translate(3244 -1375)">
        <circle id="Ellipse_62-48" data-name="Ellipse 62" class="cls-3" cx="3.5" cy="3.5" r="3.5" transform="translate(-3153 1450)"/>
      </g>
      <g transform="translate(3153 -1360)">
        <circle id="Ellipse_62-49" data-name="Ellipse 62" class="cls-3" cx="3.5" cy="3.5" r="3.5" transform="translate(-3153 1450)"/>
      </g>
      <g transform="translate(3166 -1360)">
        <circle id="Ellipse_62-50" data-name="Ellipse 62" class="cls-3" cx="3.5" cy="3.5" r="3.5" transform="translate(-3153 1450)"/>
      </g>
      <g transform="translate(3179 -1360)">
        <circle id="Ellipse_62-51" data-name="Ellipse 62" class="cls-3" cx="3.5" cy="3.5" r="3.5" transform="translate(-3153 1450)"/>
      </g>
      <g transform="translate(3192 -1360)">
        <circle id="Ellipse_62-52" data-name="Ellipse 62" class="cls-3" cx="3.5" cy="3.5" r="3.5" transform="translate(-3153 1450)"/>
      </g>
      <g transform="translate(3205 -1360)">
        <circle id="Ellipse_62-53" data-name="Ellipse 62" class="cls-3" cx="3.5" cy="3.5" r="3.5" transform="translate(-3153 1450)"/>
      </g>
      <g transform="translate(3218 -1360)">
        <circle id="Ellipse_62-54" data-name="Ellipse 62" class="cls-3" cx="3.5" cy="3.5" r="3.5" transform="translate(-3153 1450)"/>
      </g>
      <g transform="translate(3231 -1360)">
        <circle id="Ellipse_62-55" data-name="Ellipse 62" class="cls-3" cx="3.5" cy="3.5" r="3.5" transform="translate(-3153 1450)"/>
      </g>
      <g transform="translate(3244 -1360)">
        <circle id="Ellipse_62-56" data-name="Ellipse 62" class="cls-3" cx="3.5" cy="3.5" r="3.5" transform="translate(-3153 1450)"/>
      </g>
      <g transform="translate(3153 -1345)">
        <circle id="Ellipse_62-57" data-name="Ellipse 62" class="cls-3" cx="3.5" cy="3.5" r="3.5" transform="translate(-3153 1450)"/>
      </g>
      <g transform="translate(3166 -1345)">
        <circle id="Ellipse_62-58" data-name="Ellipse 62" class="cls-3" cx="3.5" cy="3.5" r="3.5" transform="translate(-3153 1450)"/>
      </g>
      <g transform="translate(3179 -1345)">
        <circle id="Ellipse_62-59" data-name="Ellipse 62" class="cls-3" cx="3.5" cy="3.5" r="3.5" transform="translate(-3153 1450)"/>
      </g>
      <g transform="translate(3192 -1345)">
        <circle id="Ellipse_62-60" data-name="Ellipse 62" class="cls-3" cx="3.5" cy="3.5" r="3.5" transform="translate(-3153 1450)"/>
      </g>
      <g transform="translate(3205 -1345)">
        <circle id="Ellipse_62-61" data-name="Ellipse 62" class="cls-3" cx="3.5" cy="3.5" r="3.5" transform="translate(-3153 1450)"/>
      </g>
      <g transform="translate(3218 -1345)">
        <circle id="Ellipse_62-62" data-name="Ellipse 62" class="cls-3" cx="3.5" cy="3.5" r="3.5" transform="translate(-3153 1450)"/>
      </g>
      <g transform="translate(3231 -1345)">
        <circle id="Ellipse_62-63" data-name="Ellipse 62" class="cls-3" cx="3.5" cy="3.5" r="3.5" transform="translate(-3153 1450)"/>
      </g>
      <g transform="translate(3244 -1345)">
        <circle id="Ellipse_62-64" data-name="Ellipse 62" class="cls-3" cx="3.5" cy="3.5" r="3.5" transform="translate(-3153 1450)"/>
      </g>
      <g transform="translate(3153 -1330)">
        <circle id="Ellipse_62-65" data-name="Ellipse 62" class="cls-3" cx="3.5" cy="3.5" r="3.5" transform="translate(-3153 1450)"/>
      </g>
      <g transform="translate(3166 -1330)">
        <circle id="Ellipse_62-66" data-name="Ellipse 62" class="cls-3" cx="3.5" cy="3.5" r="3.5" transform="translate(-3153 1450)"/>
      </g>
      <g transform="translate(3179 -1330)">
        <circle id="Ellipse_62-67" data-name="Ellipse 62" class="cls-3" cx="3.5" cy="3.5" r="3.5" transform="translate(-3153 1450)"/>
      </g>
      <g transform="translate(3192 -1330)">
        <circle id="Ellipse_62-68" data-name="Ellipse 62" class="cls-3" cx="3.5" cy="3.5" r="3.5" transform="translate(-3153 1450)"/>
      </g>
      <g transform="translate(3205 -1330)">
        <circle id="Ellipse_62-69" data-name="Ellipse 62" class="cls-3" cx="3.5" cy="3.5" r="3.5" transform="translate(-3153 1450)"/>
      </g>
      <g transform="translate(3218 -1330)">
        <circle id="Ellipse_62-70" data-name="Ellipse 62" class="cls-3" cx="3.5" cy="3.5" r="3.5" transform="translate(-3153 1450)"/>
      </g>
      <g transform="translate(3231 -1330)">
        <circle id="Ellipse_62-71" data-name="Ellipse 62" class="cls-3" cx="3.5" cy="3.5" r="3.5" transform="translate(-3153 1450)"/>
      </g>
      <g transform="translate(3244 -1330)">
        <circle id="Ellipse_62-72" data-name="Ellipse 62" class="cls-3" cx="3.5" cy="3.5" r="3.5" transform="translate(-3153 1450)"/>
      </g>
      <g transform="translate(3153 -1315)">
        <circle id="Ellipse_62-73" data-name="Ellipse 62" class="cls-3" cx="3.5" cy="3.5" r="3.5" transform="translate(-3153 1450)"/>
      </g>
      <g transform="translate(3166 -1315)">
        <circle id="Ellipse_62-74" data-name="Ellipse 62" class="cls-3" cx="3.5" cy="3.5" r="3.5" transform="translate(-3153 1450)"/>
      </g>
      <g transform="translate(3179 -1315)">
        <circle id="Ellipse_62-75" data-name="Ellipse 62" class="cls-3" cx="3.5" cy="3.5" r="3.5" transform="translate(-3153 1450)"/>
      </g>
      <g transform="translate(3192 -1315)">
        <circle id="Ellipse_62-76" data-name="Ellipse 62" class="cls-3" cx="3.5" cy="3.5" r="3.5" transform="translate(-3153 1450)"/>
      </g>
      <g transform="translate(3205 -1315)">
        <circle id="Ellipse_62-77" data-name="Ellipse 62" class="cls-3" cx="3.5" cy="3.5" r="3.5" transform="translate(-3153 1450)"/>
      </g>
      <g transform="translate(3218 -1315)">
        <circle id="Ellipse_62-78" data-name="Ellipse 62" class="cls-3" cx="3.5" cy="3.5" r="3.5" transform="translate(-3153 1450)"/>
      </g>
      <g transform="translate(3231 -1315)">
        <circle id="Ellipse_62-79" data-name="Ellipse 62" class="cls-3" cx="3.5" cy="3.5" r="3.5" transform="translate(-3153 1450)"/>
      </g>
      <g transform="translate(3244 -1315)">
        <circle id="Ellipse_62-80" data-name="Ellipse 62" class="cls-3" cx="3.5" cy="3.5" r="3.5" transform="translate(-3153 1450)"/>
      </g>
      <g transform="translate(3153 -1300)">
        <circle id="Ellipse_62-81" data-name="Ellipse 62" class="cls-3" cx="3.5" cy="3.5" r="3.5" transform="translate(-3153 1450)"/>
      </g>
      <g transform="translate(3166 -1300)">
        <circle id="Ellipse_62-82" data-name="Ellipse 62" class="cls-3" cx="3.5" cy="3.5" r="3.5" transform="translate(-3153 1450)"/>
      </g>
      <g transform="translate(3179 -1300)">
        <circle id="Ellipse_62-83" data-name="Ellipse 62" class="cls-3" cx="3.5" cy="3.5" r="3.5" transform="translate(-3153 1450)"/>
      </g>
      <g transform="translate(3192 -1300)">
        <circle id="Ellipse_62-84" data-name="Ellipse 62" class="cls-3" cx="3.5" cy="3.5" r="3.5" transform="translate(-3153 1450)"/>
      </g>
      <g transform="translate(3205 -1300)">
        <circle id="Ellipse_62-85" data-name="Ellipse 62" class="cls-3" cx="3.5" cy="3.5" r="3.5" transform="translate(-3153 1450)"/>
      </g>
      <g transform="translate(3218 -1300)">
        <circle id="Ellipse_62-86" data-name="Ellipse 62" class="cls-3" cx="3.5" cy="3.5" r="3.5" transform="translate(-3153 1450)"/>
      </g>
      <g transform="translate(3231 -1300)">
        <circle id="Ellipse_62-87" data-name="Ellipse 62" class="cls-3" cx="3.5" cy="3.5" r="3.5" transform="translate(-3153 1450)"/>
      </g>
      <g transform="translate(3244 -1300)">
        <circle id="Ellipse_62-88" data-name="Ellipse 62" class="cls-3" cx="3.5" cy="3.5" r="3.5" transform="translate(-3153 1450)"/>
      </g>
      <g transform="translate(3153 -1285)">
        <circle id="Ellipse_62-89" data-name="Ellipse 62" class="cls-3" cx="3.5" cy="3.5" r="3.5" transform="translate(-3153 1450)"/>
      </g>
      <g transform="translate(3166 -1285)">
        <circle id="Ellipse_62-90" data-name="Ellipse 62" class="cls-3" cx="3.5" cy="3.5" r="3.5" transform="translate(-3153 1450)"/>
      </g>
      <g transform="translate(3179 -1285)">
        <circle id="Ellipse_62-91" data-name="Ellipse 62" class="cls-3" cx="3.5" cy="3.5" r="3.5" transform="translate(-3153 1450)"/>
      </g>
      <g transform="translate(3192 -1285)">
        <circle id="Ellipse_62-92" data-name="Ellipse 62" class="cls-3" cx="3.5" cy="3.5" r="3.5" transform="translate(-3153 1450)"/>
      </g>
      <g transform="translate(3205 -1285)">
        <circle id="Ellipse_62-93" data-name="Ellipse 62" class="cls-3" cx="3.5" cy="3.5" r="3.5" transform="translate(-3153 1450)"/>
      </g>
      <g transform="translate(3218 -1285)">
        <circle id="Ellipse_62-94" data-name="Ellipse 62" class="cls-3" cx="3.5" cy="3.5" r="3.5" transform="translate(-3153 1450)"/>
      </g>
      <g transform="translate(3231 -1285)">
        <circle id="Ellipse_62-95" data-name="Ellipse 62" class="cls-3" cx="3.5" cy="3.5" r="3.5" transform="translate(-3153 1450)"/>
      </g>
      <g transform="translate(3244 -1285)">
        <circle id="Ellipse_62-96" data-name="Ellipse 62" class="cls-3" cx="3.5" cy="3.5" r="3.5" transform="translate(-3153 1450)"/>
      </g>
      <g transform="translate(3153 -1270)">
        <circle id="Ellipse_62-97" data-name="Ellipse 62" class="cls-3" cx="3.5" cy="3.5" r="3.5" transform="translate(-3153 1450)"/>
      </g>
      <g transform="translate(3166 -1270)">
        <circle id="Ellipse_62-98" data-name="Ellipse 62" class="cls-3" cx="3.5" cy="3.5" r="3.5" transform="translate(-3153 1450)"/>
      </g>
      <g transform="translate(3179 -1270)">
        <circle id="Ellipse_62-99" data-name="Ellipse 62" class="cls-3" cx="3.5" cy="3.5" r="3.5" transform="translate(-3153 1450)"/>
      </g>
      <g transform="translate(3192 -1270)">
        <circle id="Ellipse_62-100" data-name="Ellipse 62" class="cls-3" cx="3.5" cy="3.5" r="3.5" transform="translate(-3153 1450)"/>
      </g>
      <g transform="translate(3205 -1270)">
        <circle id="Ellipse_62-101" data-name="Ellipse 62" class="cls-3" cx="3.5" cy="3.5" r="3.5" transform="translate(-3153 1450)"/>
      </g>
      <g transform="translate(3218 -1270)">
        <circle id="Ellipse_62-102" data-name="Ellipse 62" class="cls-3" cx="3.5" cy="3.5" r="3.5" transform="translate(-3153 1450)"/>
      </g>
      <g transform="translate(3231 -1270)">
        <circle id="Ellipse_62-103" data-name="Ellipse 62" class="cls-3" cx="3.5" cy="3.5" r="3.5" transform="translate(-3153 1450)"/>
      </g>
      <g transform="translate(3244 -1270)">
        <circle id="Ellipse_62-104" data-name="Ellipse 62" class="cls-3" cx="3.5" cy="3.5" r="3.5" transform="translate(-3153 1450)"/>
      </g>
      <g transform="translate(3153 -1255)">
        <circle id="Ellipse_62-105" data-name="Ellipse 62" class="cls-3" cx="3.5" cy="3.5" r="3.5" transform="translate(-3153 1450)"/>
      </g>
      <g transform="translate(3166 -1255)">
        <circle id="Ellipse_62-106" data-name="Ellipse 62" class="cls-3" cx="3.5" cy="3.5" r="3.5" transform="translate(-3153 1450)"/>
      </g>
      <g transform="translate(3179 -1255)">
        <circle id="Ellipse_62-107" data-name="Ellipse 62" class="cls-3" cx="3.5" cy="3.5" r="3.5" transform="translate(-3153 1450)"/>
      </g>
      <g transform="translate(3192 -1255)">
        <circle id="Ellipse_62-108" data-name="Ellipse 62" class="cls-3" cx="3.5" cy="3.5" r="3.5" transform="translate(-3153 1450)"/>
      </g>
      <g transform="translate(3205 -1255)">
        <circle id="Ellipse_62-109" data-name="Ellipse 62" class="cls-3" cx="3.5" cy="3.5" r="3.5" transform="translate(-3153 1450)"/>
      </g>
      <g transform="translate(3218 -1255)">
        <circle id="Ellipse_62-110" data-name="Ellipse 62" class="cls-3" cx="3.5" cy="3.5" r="3.5" transform="translate(-3153 1450)"/>
      </g>
      <g transform="translate(3231 -1255)">
        <circle id="Ellipse_62-111" data-name="Ellipse 62" class="cls-3" cx="3.5" cy="3.5" r="3.5" transform="translate(-3153 1450)"/>
      </g>
      <g transform="translate(3244 -1255)">
        <circle id="Ellipse_62-112" data-name="Ellipse 62" class="cls-3" cx="3.5" cy="3.5" r="3.5" transform="translate(-3153 1450)"/>
      </g>
    </g>
    <circle id="Ellipse_658" data-name="Ellipse 658" class="cls-3" cx="30.5" cy="30.5" r="30.5" transform="translate(271 2238)"/>
  </g>
</svg>
